<svg data-v-fde0c5aa="" xmlns="http://www.w3.org/2000/svg" viewBox="0 0 300 300" class="iconLeft"><!----><defs data-v-fde0c5aa=""><!----></defs><rect data-v-fde0c5aa="" fill="#000000" x="0" y="0" width="300px" height="300px" class="logo-background-square"></rect><defs data-v-fde0c5aa=""><!----></defs><g data-v-fde0c5aa="" id="cb8534c7-52bd-4630-80ad-f65ab2ca8bbe" fill="#ffffff" transform="matrix(2.732276582546656,0,0,2.732276582546656,106.63731209612902,127.11718427259724)"><path d="M6.15 13.78L5.75 11.75L3.01 11.75L2.60 13.78L0.16 13.78L2.84 2.80L5.87 2.80L8.55 13.78L6.15 13.78ZM3.40 9.85L5.37 9.85L4.57 5.74L4.44 4.70L4.38 4.70L4.24 5.74L3.40 9.85ZM11.40 13.78Q10.60 13.78 10.13 13.52Q9.66 13.25 9.45 12.70Q9.24 12.14 9.24 11.23L9.24 11.23L9.24 7.14L8.39 7.14L8.39 5.63L9.43 5.63L9.91 3.76L11.57 3.76L11.57 5.63L13.00 5.63L13.00 7.14L11.57 7.14L11.57 10.66Q11.57 11.22 11.64 11.49Q11.72 11.76 11.91 11.87Q12.11 11.97 12.51 11.97L12.51 11.97L13.00 11.97L13.00 13.78L11.40 13.78ZM14.16 13.78L14.16 2.80L16.43 2.80L16.43 6.87L16.53 6.87Q16.82 6.21 17.34 5.84Q17.86 5.48 18.59 5.48L18.59 5.48Q19.26 5.48 19.78 5.82Q20.30 6.17 20.58 6.81Q20.87 7.44 20.87 8.29L20.87 8.29L20.87 13.78L18.55 13.78L18.55 8.64Q18.55 7.98 18.31 7.67Q18.08 7.37 17.62 7.37L17.62 7.37Q17.10 7.37 16.80 7.78Q16.50 8.18 16.50 8.90L16.50 8.90L16.50 13.78L14.16 13.78ZM22.37 13.78L22.37 2.80L24.71 2.80L24.71 13.78L22.37 13.78ZM29.52 12.13Q29.92 12.13 30.21 11.93Q30.50 11.74 30.68 11.33L30.68 11.33L32.33 11.83Q31.95 12.99 31.21 13.47Q30.46 13.95 29.40 13.95L29.40 13.95Q28.37 13.95 27.57 13.47Q26.77 12.98 26.32 12.03Q25.87 11.09 25.87 9.75L25.87 9.75Q25.87 7.75 26.69 6.61Q27.52 5.48 29.20 5.48L29.20 5.48Q30.81 5.48 31.60 6.48Q32.38 7.49 32.38 9.25L32.38 9.25Q32.38 9.88 32.31 10.26L32.31 10.26L28.11 10.26Q28.10 10.82 28.28 11.25Q28.45 11.67 28.78 11.90Q29.10 12.13 29.52 12.13L29.52 12.13ZM29.29 7.21Q28.19 7.21 28.15 8.82L28.15 8.82L30.45 8.82Q30.41 8.05 30.17 7.63Q29.92 7.21 29.29 7.21L29.29 7.21ZM35.84 13.78Q35.05 13.78 34.58 13.52Q34.10 13.25 33.90 12.70Q33.69 12.14 33.69 11.23L33.69 11.23L33.69 7.14L32.83 7.14L32.83 5.63L33.87 5.63L34.35 3.76L36.01 3.76L36.01 5.63L37.45 5.63L37.45 7.14L36.01 7.14L36.01 10.66Q36.01 11.22 36.09 11.49Q36.16 11.76 36.36 11.87Q36.55 11.97 36.96 11.97L36.96 11.97L37.44 11.97L37.44 13.78L35.84 13.78ZM41.63 12.13Q42.03 12.13 42.32 11.93Q42.61 11.74 42.79 11.33L42.79 11.33L44.45 11.83Q44.06 12.99 43.32 13.47Q42.57 13.95 41.51 13.95L41.51 13.95Q40.48 13.95 39.68 13.47Q38.88 12.98 38.43 12.03Q37.98 11.09 37.98 9.75L37.98 9.75Q37.98 7.75 38.81 6.61Q39.63 5.48 41.31 5.48L41.31 5.48Q42.92 5.48 43.71 6.48Q44.50 7.49 44.50 9.25L44.50 9.25Q44.50 9.88 44.43 10.26L44.43 10.26L40.22 10.26Q40.22 10.82 40.39 11.25Q40.56 11.67 40.89 11.90Q41.21 12.13 41.63 12.13L41.63 12.13ZM41.41 7.21Q40.30 7.21 40.26 8.82L40.26 8.82L42.56 8.82Q42.53 8.05 42.28 7.63Q42.03 7.21 41.41 7.21L41.41 7.21ZM56.13 13.78L53.62 13.78L52.14 9.81L50.65 13.78L48.13 13.78L50.55 8.29L48.15 2.80L50.66 2.80L52.14 7.03L53.61 2.80L56.12 2.80L53.69 8.29L56.13 13.78Z"></path></g><defs data-v-fde0c5aa=""><!----></defs><g data-v-fde0c5aa="" id="ae2d3319-6765-4710-8a28-a07b51e7a154" stroke="none" fill="#D62807" transform="matrix(0.6002298535596692,0,0,0.6002298535596692,36.99884815629458,120.11857517405149)"><path d="M94.6 45.4c-.6-2.3-1.7-4.6-2.5-5.7-.3-.5-.8-1.2-1.3-2-.6-.9-1.3-1.9-1.9-2.8-1.1-1.6-1.6-3.4-1.8-4-.2-.6-.2-1.4-.3-2.2v-.1c-.1-.8-.1-1.6-1-2.4-.9-.8-2-.7-2.2-.7 0 0-8.7-.3-8.8-.3-.5.1-.8.4-1 .6-.3.4-.3.9-.3 1.1l-.1 4c0 .1 0 .7.4 1.1.3.3.7.4.9.4 0 0 0 .1.1.1h.2c0-1.4 0-3.2.1-4.7 0 0 0-.6.3-.9.2-.2.4-.3.7-.3h1.2c.1 0 .2.1.2.2s-.1.3-.2.3h-1.2c-.2 0-.3.1-.4.2-.2.2-.2.5-.2.5 0 1.1 0 4.4-.1 5.3.1.1.1.2.2.2.4.3.8.4.8.4h.2v-4.2s0-.6.3-.9c.2-.2.4-.3.7-.3h1.2c.1 0 .2.2.2.3 0 .1-.1.2-.2.2h-1.2c-.2 0-.3 0-.4.1-.2.2-.2.5-.2.5 0 1 0 4.1-.1 5 0 0 0 .1.1.1.4.4.9.4 1 .4l3.1.1c.1 0 .5 0 .8-.3l.2-.2c.3-.8.4-1.2.2-2.2H79.4v.7c0 .1-.2.2-.3.2-.1 0-.3-.1-.3-.2v-1.6c0-.1.1-.2.3-.2.2 0 .2.3.2.3v.5h.8c1.6 0 2.6.1 3-.3.5-.4.4-1 .4-1.1l.1-1.6c0-.1.2-.2.3-.2.1 0 .3.1.3.2v1.6s0 .9-.6 1.4c-.2.2-.5.3-.8.3h-.1c0 .4.3 1.1-.3 2.4v.2c0 .2.1.5.1.7 0 .7-.1 1.9-.3 3-.1.8-.2 1.6-.3 2.3-.1 1.1-.1 2.6 0 3.8.5.5 1.2 1.3 1.7 2.2 0 .1 0 .2-.1.3h-.1c-.1 0-.1 0-.2-.1-.6-1.3-1.7-2.3-2.1-2.6-1-.6-2.2-1.1-3.7-1.1-1.7 0-2.9.5-3.8 1.1-.5.4-1.6 1.2-2.2 2.2 0 .1-.1.1-.2.1h-.1c-.1-.1-.1-.2-.1-.3.6-1 1.7-1.8 2.2-2.2-1-.8-3-1.9-6.1-1.9-1.3 0-2.4.2-3.3.6-1.2-1-2.5-2-3.7-2.7-.8.6-1.7 1.4-2 1.5-.2.1-.5.1-.9.1-1 0-2.5-.3-3.3-1-.6-.6-3-4.9-3-5.2v-3.3c0-.1.1-.2.3-.2.1 0 .2.1.2.3v3.2c0 .2 2.3 4.4 2.8 4.9 1 .9 3.3 1 3.7.8.3-.1 1.7-1.3 2.7-2.1 1.6-1.5 3.2-3.6 4.5-6 .1-.2.2-.6.3-1 .5-.5 1.1-1.3 1.7-2.5 1.9-4.1-.2-7.5-1.1-8.6-.6-1.1-1.5-2-2.7-2.6-.3-.2-.6-.3-1-.4-1.3-.8-2.9-1.2-4.5-1.2-5 0-9.1 4.1-9.1 9.1 0 .8.1 1 .3 1.8-1 2.1-3 5.2-5 6.2-4.9-.2-7.4 1.9-7.5 2-.1-.1-1.1-.8-1.6-1-2.7-1.5-5-1.6-6.3-1.4.3.6.8 1.9.8 3 0 .1-.1.2-.2.2h-.1c-.1 0-.1-.1-.1-.2-.1-1.2-.7-2.4-1-3 0 0-1.3-1.9-2.8-2.8-1.1-.8-2.2-.9-3.3-.9h-.1c-.4 0-1.9.3-3.1 1.1h-.2s-.1 0-.1-.1c-.1-.1 0-.2 0-.3.9-.6 1.8-1 2.5-1.1.7-1 1.5-2.3 1.9-3.3.3-.6.6-1.4.9-2.2.4-1.1.9-2.1 1.2-2.7.1-.2.3-.3.4-.5l.1-.2c-.1-1.1.7-2 .9-2.3l-.1-.1c-.3-.2-.5-.4-.5-.7-.3-.8.1-1.5.2-1.5l.8-1.4c.1-.1.2-.1.3 0 .1.1.2.2.2.3l-.8 1.4s-.4.5-.2 1.1c.2.5 1 .9 2.4 1.7.3.2.6.3.9.5l.3-.5c.1-.1.2-.1.3 0 .1.1.2.2.2.3l-.7 1.5c-.1.1-.2.1-.3 0-.1-.1-.2-.2-.2-.3l.3-.6c-.4-.2-.7-.4-1-.5-.3-.1-.5-.3-.7-.4-.4-.2-.7-.4-1-.6-.5.8-.8 1.2-.9 2v.3c.1.4.5.6.6.7l2.7 1.5c.1 0 .5.3 1 .1h.1c.4-.8 1.9-3.4 2.4-4.3 0 0 .1-.2.1-.5 0-.1-.1-.2-.3-.3l-1.1-.6c-.1-.1-.2-.2-.1-.3.1-.1.2-.1.3-.1l1.1.6c.3.1.5.3.5.5.1.4-.1.9-.1.9-.7 1.2-1.5 2.7-2.1 3.7l.2.1s.4.2.9.1c.1 0 .2-.1.3-.1.4-.8 2-3.7 2.6-4.7 0 0 .2-.3.1-.5 0-.1-.1-.3-.3-.4l-1.1-.6c-.1-.1-.2-.2-.1-.3.1-.1.2-.1.3-.1l1.1.6c.3.1.5.3.5.5.1.4-.2 1-.2 1-.7 1.3-1.6 2.9-2.3 4.1l.2.1s.1-.1.1 0c.2.1.5.2 1 .1s.8-.7.9-.7l1.9-3.5c.1-.1.3-.6.2-1.1 0-.3-.2-.7-.6-1l-7.8-4.2c-.2-.1-1.1-.7-2.3-.4-1.2.3-1.6.9-2 1.6v.1c-.4.7-.9 1.4-1.3 1.8-.4.4-1.8 1.8-3.5 2.6l-3 1.5c-.8.4-1.6.8-2.1 1.1-1.2.6-3.3 2-5 3.7-1.3 1.3-2.6 3.2-3.5 5.5-.6 1.6-1 4-1.1 4.1v.1l.2.1c0 .1 1.1 1.7 4.1 4.5 2.4 5.3 6 8.4 9.4 10.2 2.1 1.1 4.1 1.8 5.7 2.1.5 1.8 1.8 5.9 3.8 8.1 1.1 6 7.1 20.9 9.9 24.6 2.8 3.7 25 7.3 24.6.6-.4-6.8-3-10.4-3-10.4s2-1.3.7-5.4c3.7-3 5.5-7.9 5.5-7.9.1 0 3.6 1.8 8.6 1.9 3.8.1 8.5-.8 13.2-4.3 3.9-.9 5.7-1.9 5.7-1.9h.2l.1-.1c0-.1.9-2.3 1.1-4 .5-2.5.3-4.7-.2-6.6zM11.5 31.7c-.1-.1-.2-.2-.1-.3 0-.1.1-.2.3-.1 2.5.7 4-1.6 4.6-2.5.1-.1.1-.2.1-.2.4-.6 4-6.9 4-6.9.1-.1.2-.1.3-.1.1.1.1.2.1.3-.1.3-3.6 6.4-4.1 7 0 0-.1.1-.1.2-.6.8-2.4 3.4-5.1 2.6zm13.9 12.5c-1.9 0-3.5-.5-4.8-1.2-3.8-2-5.4-6-5.4-6 0-.1 0-.2.1-.3.1 0 .2 0 .3.1 0 .1 2.9 7 9.9 7 .1 0 .2.1.2.2-.1.1-.2.2-.3.2zm10.9 10.3h-.1c-.1 0-.1 0-.2-.1-3.1-5.4-8.3-6.2-8.3-6.2-.1 0-.2-.1-.2-.2s.1-.2.2-.2 5.4.9 8.6 6.4c.2.1.1.2 0 .3zm21.3 14.4c-1.5-.1-3 .1-4.8.6-.1 1.2-.3 2.5-.6 3.5 2-.5 3.7-.6 4.9-.3.1 0 .2.2.1.3 0 .1-.2.2-.3.1-1.1-.3-2.7-.2-4.7.3 3 3.4 2.8 5.6 2.8 5.7 0 .1-.1 0-.2 0s-.2.1-.2 0c0 0 .2-2.3-2.9-5.7-1.6-.8-5.6-.6-5.7-.6-.1 0-.2-.1-.2-.2s.1-.2.2-.2c.2 0 3.9-.1 5.7.6.3-1 .5-2.3.6-3.5-1.6-.8-6.2-1.2-6.3-1.2-.1 0-.2-.1-.2-.2s.1-.2.2-.2c.2 0 4.5.4 6.3 1.2.2-2 .2-3.7.2-3.7 0-.1.1-.2.2-.2s.2.1.2.2 0 1.8-.2 3.7c1.8-.5 3.3-.7 4.8-.5.1 0 .2.1.2.2.1 0 0 .1-.1.1zm3.3-6.6h-.6c-3.3 0-5.4-1.5-5.5-1.6h-.1l-.9-2.7-1.8 2.8h-.1c-.4.1-10.2 2.6-13.8-2.8-.1-.1 0-.2.1-.3.1-.1.2 0 .3.1 3.3 4.9 12.3 2.9 13.3 2.6l1.9-3c1.1-4.7.1-10.7-.4-11.9-1.1-1-5.6-3.1-5.6-3.1-.1-.1-.2-.2-.1-.3 0-.1.2-.1.3-.1.2.1 3.6 1.7 5.2 2.8-.2-1.1.2-2.2.2-2.2 0-.1.2-.2.3-.1.1 0 .2.2.1.3 0 0-.5 1.3-.1 2.4.4-.1.9-.3 1.4-.4 1.4-.5 2.9-.9 4.3-.7.1 0 .2.1.2.3 0 .1-.1.2-.3.2-1.3-.3-2.7.2-4.1.7-.4.1-.9.3-1.3.4.6 1.6 1.5 7.5.4 12l1 2.9c.4.2 2.6 1.6 5.8 1.4.1 0 .2.1.2.2-.1 0-.2.1-.3.1zM83.5 54s-3.4 2.7-7.7 2.6c-1.5 0-3.2-.4-4.8-1.4-.1-.1-.1-.2-.1-.3.1-.1.2-.1.3-.1 6 3.5 12-1.1 12-1.2.1-.1.2-.1.3 0 .1.2.1.3 0 .4zm6-3c0 .1-.1.2-.2.2-2.8-.7-3-3.8-3.1-4.8v-.2c-.2-.8-.2-7.9-.2-8.2 0-.1.1-.2.2-.2s.2.1.2.2 0 7.3.1 8v.3c.1 1 .3 3.8 2.8 4.4.2 0 .2.2.2.3z"></path></g><!----></svg>