<svg data-v-423bf9ae="" xmlns="http://www.w3.org/2000/svg" viewBox="0 0 301.183873375311 60" class="font"><!----><!----><!----><g data-v-423bf9ae="" id="37d863ed-7427-4d5d-b436-a27808838524" fill="black" transform="matrix(5.3811661033858265,0,0,5.3811661033858265,-0.8609850771422316,-15.067265071304902)"><path d="M6.15 13.78L5.75 11.75L3.01 11.75L2.60 13.78L0.16 13.78L2.84 2.80L5.87 2.80L8.55 13.78L6.15 13.78ZM3.40 9.85L5.37 9.85L4.57 5.74L4.44 4.70L4.38 4.70L4.24 5.74L3.40 9.85ZM11.40 13.78Q10.60 13.78 10.13 13.52Q9.66 13.25 9.45 12.70Q9.24 12.14 9.24 11.23L9.24 11.23L9.24 7.14L8.39 7.14L8.39 5.63L9.43 5.63L9.91 3.76L11.57 3.76L11.57 5.63L13.00 5.63L13.00 7.14L11.57 7.14L11.57 10.66Q11.57 11.22 11.64 11.49Q11.72 11.76 11.91 11.87Q12.11 11.97 12.51 11.97L12.51 11.97L13.00 11.97L13.00 13.78L11.40 13.78ZM14.16 13.78L14.16 2.80L16.43 2.80L16.43 6.87L16.53 6.87Q16.82 6.21 17.34 5.84Q17.86 5.48 18.59 5.48L18.59 5.48Q19.26 5.48 19.78 5.82Q20.30 6.17 20.58 6.81Q20.87 7.44 20.87 8.29L20.87 8.29L20.87 13.78L18.55 13.78L18.55 8.64Q18.55 7.98 18.31 7.67Q18.08 7.37 17.62 7.37L17.62 7.37Q17.10 7.37 16.80 7.78Q16.50 8.18 16.50 8.90L16.50 8.90L16.50 13.78L14.16 13.78ZM22.37 13.78L22.37 2.80L24.71 2.80L24.71 13.78L22.37 13.78ZM29.52 12.13Q29.92 12.13 30.21 11.93Q30.50 11.74 30.68 11.33L30.68 11.33L32.33 11.83Q31.95 12.99 31.21 13.47Q30.46 13.95 29.40 13.95L29.40 13.95Q28.37 13.95 27.57 13.47Q26.77 12.98 26.32 12.03Q25.87 11.09 25.87 9.75L25.87 9.75Q25.87 7.75 26.69 6.61Q27.52 5.48 29.20 5.48L29.20 5.48Q30.81 5.48 31.60 6.48Q32.38 7.49 32.38 9.25L32.38 9.25Q32.38 9.88 32.31 10.26L32.31 10.26L28.11 10.26Q28.10 10.82 28.28 11.25Q28.45 11.67 28.78 11.90Q29.10 12.13 29.52 12.13L29.52 12.13ZM29.29 7.21Q28.19 7.21 28.15 8.82L28.15 8.82L30.45 8.82Q30.41 8.05 30.17 7.63Q29.92 7.21 29.29 7.21L29.29 7.21ZM35.84 13.78Q35.05 13.78 34.58 13.52Q34.10 13.25 33.90 12.70Q33.69 12.14 33.69 11.23L33.69 11.23L33.69 7.14L32.83 7.14L32.83 5.63L33.87 5.63L34.35 3.76L36.01 3.76L36.01 5.63L37.45 5.63L37.45 7.14L36.01 7.14L36.01 10.66Q36.01 11.22 36.09 11.49Q36.16 11.76 36.36 11.87Q36.55 11.97 36.96 11.97L36.96 11.97L37.44 11.97L37.44 13.78L35.84 13.78ZM41.63 12.13Q42.03 12.13 42.32 11.93Q42.61 11.74 42.79 11.33L42.79 11.33L44.45 11.83Q44.06 12.99 43.32 13.47Q42.57 13.95 41.51 13.95L41.51 13.95Q40.48 13.95 39.68 13.47Q38.88 12.98 38.43 12.03Q37.98 11.09 37.98 9.75L37.98 9.75Q37.98 7.75 38.81 6.61Q39.63 5.48 41.31 5.48L41.31 5.48Q42.92 5.48 43.71 6.48Q44.50 7.49 44.50 9.25L44.50 9.25Q44.50 9.88 44.43 10.26L44.43 10.26L40.22 10.26Q40.22 10.82 40.39 11.25Q40.56 11.67 40.89 11.90Q41.21 12.13 41.63 12.13L41.63 12.13ZM41.41 7.21Q40.30 7.21 40.26 8.82L40.26 8.82L42.56 8.82Q42.53 8.05 42.28 7.63Q42.03 7.21 41.41 7.21L41.41 7.21ZM56.13 13.78L53.62 13.78L52.14 9.81L50.65 13.78L48.13 13.78L50.55 8.29L48.15 2.80L50.66 2.80L52.14 7.03L53.61 2.80L56.12 2.80L53.69 8.29L56.13 13.78Z"></path></g><!----><!----></svg>